<svg xmlns="http://www.w3.org/2000/svg" width="24" height="24" viewBox="0 0 24 24" fill="none">
    <path d="M18.73 5.41L17.45 6.41L12 10.46L6.54995 6.37L5.26995 5.37C4.96841 5.12055 4.6003 4.96504 4.21124 4.92275C3.82218 4.88046 3.42926 4.95325 3.08116 5.13209C2.73306 5.31093 2.44508 5.58797 2.25289 5.92888C2.06071 6.26979 1.97276 6.6596 1.99995 7.05V18.64C1.99995 19.0007 2.14324 19.3466 2.39829 19.6017C2.65334 19.8567 2.99926 20 3.35995 20H6.54995V12.28L12 16.37L17.45 12.28V20H20.64C21.0006 20 21.3466 19.8567 21.6016 19.6017C21.8567 19.3466 22 19.0007 22 18.64V7.05C22.0187 6.66297 21.9247 6.27881 21.7292 5.94423C21.5337 5.60965 21.2453 5.33905 20.8989 5.16533C20.5525 4.99162 20.1632 4.92226 19.7781 4.9657C19.3931 5.00913 19.0289 5.16349 18.73 5.41Z" fill="white"/>
</svg>