<svg xmlns="http://www.w3.org/2000/svg" width="20" height="20" viewBox="0 0 20 20" fill="none">
    <path fill-rule="evenodd" clip-rule="evenodd" d="M0 10C0 9.78938 0.00633339 9.58105 0.0190001 9.37505H0V7.50005H17.733C17.1707 5.76384 16.0405 4.26733 14.5245 3.25137C13.0084 2.2354 11.1946 1.75907 9.375 1.89905V0.0190477C9.58167 0.00571434 9.79 -0.000619048 10 4.76187e-05C15.523 4.76187e-05 20 4.47605 20 10C20 15.523 15.523 20 10 20C4.477 20 0 15.523 0 10ZM1.875 10C1.875 9.78938 1.883 9.58105 1.899 9.37505H3.153C3.06134 10.3783 3.19129 11.3895 3.53365 12.3369C3.87601 13.2844 4.42243 14.1451 5.13422 14.858C5.84602 15.571 6.7058 16.1188 7.65273 16.4626C8.59966 16.8065 9.61059 16.9381 10.614 16.848V14.962C9.85846 15.0556 9.09154 14.9753 8.37173 14.7274C7.65192 14.4795 6.99821 14.0705 6.46047 13.5316C5.92272 12.9927 5.51514 12.3382 5.2688 11.6178C5.02245 10.8975 4.94386 10.1304 5.039 9.37505H18.1C18.116 9.58105 18.124 9.78938 18.124 10C18.124 12.1548 17.2681 14.2212 15.7446 15.7449C14.2211 17.2686 12.1547 18.1248 10 18.125C7.84512 18.125 5.77849 17.269 4.25476 15.7453C2.73102 14.2216 1.875 12.1549 1.875 10ZM10 13.75C10.3315 13.75 10.6495 13.6184 10.8839 13.3839C11.1183 13.1495 11.25 12.8316 11.25 12.5C11.25 12.1685 11.1183 11.8506 10.8839 11.6162C10.6495 11.3817 10.3315 11.25 10 11.25C9.66848 11.25 9.35054 11.3817 9.11612 11.6162C8.8817 11.8506 8.75 12.1685 8.75 12.5C8.75 12.8316 8.8817 13.1495 9.11612 13.3839C9.35054 13.6184 9.66848 13.75 10 13.75Z" fill="black"/>
</svg>