<?xml version="1.0" standalone="no"?>
<!DOCTYPE svg PUBLIC "-//W3C//DTD SVG 20010904//EN"
 "http://www.w3.org/TR/2001/REC-SVG-20010904/DTD/svg10.dtd">
<svg version="1.0" xmlns="http://www.w3.org/2000/svg"
 width="1000.000000pt" height="1337.000000pt" viewBox="0 0 1000.000000 1337.000000"
 preserveAspectRatio="xMidYMid meet">

<g transform="translate(0.000000,1337.000000) scale(0.100000,-0.100000)"
fill="#000000" stroke="none">
<path fill="#00FF00" d="M5601 13293 c-29 -109 -137 -556 -151 -625 l-11 -57 -131 6 c-106 5
-132 4 -139 -8 -18 -28 -30 -93 -24 -127 6 -32 8 -34 37 -28 35 7 191 -3 207
-14 8 -4 1 -63 -23 -196 -55 -302 -99 -624 -131 -975 l-6 -66 -62 -11 c-34 -6
-86 -19 -115 -27 -46 -14 -56 -22 -68 -51 -18 -42 -15 -150 3 -147 6 1 46 11
90 22 43 11 92 22 108 26 l30 5 0 -417 c0 -369 12 -656 31 -754 5 -25 1 -27
-95 -58 -87 -27 -102 -35 -107 -57 -7 -28 11 -109 31 -140 l14 -22 87 29 c48
16 88 28 90 26 2 -2 19 -95 38 -208 42 -252 74 -395 126 -568 23 -73 39 -135
38 -136 -2 -1 -37 -9 -78 -16 l-75 -14 -3 -37 c-4 -41 11 -105 30 -131 12 -16
18 -16 97 -1 46 9 87 12 91 7 4 -4 29 -84 55 -178 59 -212 118 -397 151 -472
20 -44 23 -58 12 -62 -56 -18 -279 -143 -349 -195 -109 -82 -243 -223 -304
-320 l-48 -76 -55 63 c-31 34 -160 167 -288 296 l-233 234 67 62 66 61 -13 32
c-15 35 -61 79 -99 93 -21 8 -32 2 -94 -56 l-69 -66 -28 23 c-16 13 -98 82
-183 153 -183 153 -398 321 -596 465 -79 57 -145 107 -148 112 -3 4 13 32 36
61 22 30 40 61 40 70 0 33 -92 117 -128 117 -5 0 -32 -31 -60 -70 l-51 -69
-133 83 c-249 156 -543 317 -858 469 -102 49 -187 91 -189 93 -2 2 20 50 48
106 33 65 50 109 46 120 -10 25 -85 58 -131 58 l-39 0 -48 -100 c-27 -55 -52
-100 -57 -100 -5 0 -79 29 -165 65 -201 84 -520 201 -710 260 -82 26 -153 49
-157 52 -4 2 12 42 35 89 l42 86 -23 19 c-29 23 -96 42 -121 34 -10 -3 -36
-43 -60 -94 l-42 -89 -112 30 c-174 46 -484 118 -512 118 -26 0 -35 -23 -14
-36 6 -3 115 -41 242 -84 259 -87 347 -119 347 -126 0 -9 -43 -88 -67 -126
-14 -20 -22 -42 -18 -48 11 -18 86 -50 117 -50 29 0 62 40 107 128 12 23 25
41 29 38 4 -2 75 -31 157 -64 194 -78 425 -178 648 -282 171 -80 177 -84 164
-104 -8 -12 -36 -58 -62 -104 -46 -79 -47 -83 -30 -102 23 -26 95 -52 130 -48
24 2 37 17 82 93 30 49 56 91 58 93 12 12 499 -266 705 -403 159 -105 400
-280 400 -290 0 -3 -20 -31 -45 -63 -25 -31 -45 -67 -45 -79 0 -29 62 -98 99
-111 28 -10 31 -7 87 64 36 46 62 70 68 65 338 -262 784 -630 854 -704 l34
-35 -47 -60 c-38 -49 -46 -66 -41 -86 8 -34 69 -94 103 -102 22 -6 31 -2 48
21 11 16 34 43 50 61 l30 33 180 -191 c99 -105 256 -269 348 -364 l168 -172
-15 -105 c-49 -328 14 -731 180 -1152 81 -205 183 -406 359 -710 308 -530 585
-1039 585 -1073 0 -22 -354 161 -790 408 -168 96 -379 211 -470 256 -91 45
-174 89 -184 97 -19 14 -19 15 2 42 47 59 36 145 -24 191 -27 21 -34 33 -34
61 0 91 -66 251 -122 298 -89 75 -206 42 -308 -87 -71 -89 -85 -123 -85 -213
0 -70 4 -87 30 -135 16 -30 68 -93 115 -140 186 -185 418 -323 1548 -920 l502
-265 49 -125 c123 -315 224 -667 376 -1305 88 -373 146 -597 211 -820 35 -121
37 -139 38 -265 l0 -135 -67 -220 c-105 -342 -118 -456 -57 -517 34 -34 60
-35 134 -7 84 31 194 108 266 186 114 123 162 228 265 576 17 59 36 99 57 123
35 40 13 38 218 15 299 -35 630 76 863 289 47 43 60 50 72 40 25 -21 54 -116
65 -212 28 -248 31 -264 60 -323 51 -105 115 -120 191 -44 131 131 219 509
170 734 -17 77 -73 254 -110 343 l-28 69 24 59 c248 604 297 1315 141 2054
-27 131 -115 454 -151 554 l-14 40 102 155 c243 371 511 867 744 1374 177 385
215 558 151 704 -54 126 -252 236 -381 213 -155 -28 -210 -249 -105 -422 27
-45 31 -59 24 -86 -17 -63 48 -142 116 -142 24 0 26 -3 21 -22 -14 -46 -147
-314 -246 -496 -174 -319 -525 -912 -539 -912 -4 0 -32 82 -64 183 -97 308
-125 386 -203 562 -144 325 -406 842 -537 1060 -105 173 -308 480 -385 582
-139 183 -358 358 -594 475 l-108 53 8 55 c4 30 8 89 8 130 0 62 -3 75 -17 78
-9 2 -23 -9 -33 -25 -19 -32 -82 -79 -92 -69 -3 3 -8 32 -11 64 -7 85 -26 91
-61 19 -11 -23 -29 -47 -40 -54 -18 -11 -20 -9 -30 40 -5 29 -11 61 -13 71 -3
22 -18 29 -33 18 -6 -4 -29 -51 -50 -105 l-40 -97 -190 -5 c-104 -3 -201 -6
-214 -7 -22 -3 -28 7 -73 117 -77 188 -198 513 -198 529 0 12 16 16 73 18 l72
3 -1 55 c-1 30 -9 70 -18 88 l-17 32 -88 0 -88 0 -26 93 c-42 149 -177 769
-177 813 0 21 5 24 38 24 20 0 67 3 104 6 80 8 85 16 68 100 -18 85 -28 91
-140 83 -52 -4 -97 -5 -99 -4 -6 6 -29 211 -45 405 -13 147 -46 690 -46 748 0
9 25 12 94 12 l94 0 17 43 c9 25 15 63 13 93 l-3 49 -114 3 -114 3 6 422 c5
358 25 748 38 762 2 2 35 -3 74 -11 38 -8 75 -12 81 -10 7 3 18 30 25 60 19
85 9 99 -85 115 -75 12 -76 13 -76 42 0 42 25 201 60 384 34 177 60 356 53
368 -2 4 -12 7 -22 7 -15 0 -23 -17 -40 -77z m923 -5436 c-1 -9 -21 -52 -45
-94 -52 -91 -169 -213 -251 -262 -134 -78 -233 -103 -510 -126 -243 -20 -398
-60 -385 -99 2 -6 29 -23 60 -38 31 -15 57 -32 57 -38 0 -16 -89 -108 -112
-116 -13 -4 -18 -13 -16 -27 3 -19 12 -23 58 -29 65 -8 110 -23 110 -38 0 -6
-20 -25 -45 -42 -46 -32 -58 -61 -29 -72 23 -9 173 -7 219 3 22 5 72 12 112
16 l72 6 -12 -38 c-6 -21 -11 -99 -11 -173 0 -115 4 -150 28 -240 108 -410
377 -758 699 -905 135 -61 224 -79 387 -79 176 1 256 19 405 93 178 89 311
224 400 406 64 129 86 222 92 390 10 279 -60 508 -225 738 -166 232 -439 391
-680 398 l-69 2 48 91 c26 50 53 110 60 133 l12 42 106 -54 c235 -118 438
-281 574 -460 153 -203 436 -656 540 -863 30 -59 90 -177 133 -262 177 -345
328 -690 383 -875 23 -77 84 -268 136 -425 222 -676 291 -953 337 -1345 16
-140 16 -565 0 -710 -69 -612 -274 -1133 -565 -1441 -149 -157 -343 -278 -522
-324 -121 -31 -286 -44 -387 -30 -154 22 -174 23 -210 6 -43 -21 -84 -83 -108
-166 -74 -260 -96 -324 -137 -404 -61 -119 -182 -243 -291 -300 -134 -69 -166
-68 -177 8 -10 61 13 166 92 431 100 339 100 366 -21 802 -35 126 -85 318
-111 428 -207 871 -299 1202 -419 1508 -19 48 -33 87 -32 87 2 0 45 -23 96
-51 51 -27 99 -48 106 -45 17 7 18 30 2 44 -20 16 -496 270 -1033 552 -66 35
-133 71 -150 80 -16 10 -79 44 -140 75 -253 133 -618 343 -740 426 -168 115
-275 212 -325 295 -30 51 -35 67 -35 124 0 84 27 141 105 218 94 94 172 101
230 20 85 -117 95 -299 19 -352 -22 -15 -86 -38 -141 -50 -29 -7 -36 -24 -17
-43 7 -7 26 -7 57 -1 46 8 48 7 77 -27 20 -24 46 -41 78 -50 26 -8 62 -25 80
-39 17 -13 104 -60 192 -104 88 -44 286 -152 440 -239 509 -289 768 -422 1018
-518 98 -37 131 -40 125 -8 -2 11 -41 32 -115 61 l-111 44 -42 92 c-64 139
-239 468 -368 691 -64 110 -165 286 -225 390 -309 536 -466 950 -518 1368 -12
103 -7 401 8 466 l8 34 37 -32 c40 -35 58 -34 58 4 0 31 124 175 150 175 40 0
30 32 -37 114 -36 44 -70 86 -74 92 -5 6 14 43 45 90 257 384 741 616 1271
610 108 -1 120 -3 119 -19z m387 -417 c58 -6 135 -20 170 -31 343 -113 612
-453 669 -848 18 -117 8 -324 -20 -421 -49 -173 -151 -333 -282 -440 -75 -61
-235 -141 -333 -167 -94 -24 -311 -24 -408 0 -242 60 -465 226 -627 468 -193
289 -283 646 -218 868 l13 43 75 19 c312 79 541 205 735 404 61 62 112 113
115 114 3 0 53 -4 111 -9z m2850 -552 c73 -33 132 -87 161 -146 19 -40 23 -62
22 -142 -1 -80 -7 -112 -36 -200 -50 -149 -149 -368 -328 -725 -207 -412 -360
-681 -553 -979 l-71 -109 -37 114 -37 114 23 40 c12 22 81 137 152 255 304
503 532 923 628 1154 19 47 44 101 56 120 13 23 20 49 18 73 -3 34 2 43 42 80
41 39 43 43 27 59 -16 16 -19 15 -52 -13 -62 -56 -161 -68 -221 -29 -57 37
-90 165 -65 255 7 26 26 59 46 79 33 33 36 34 102 30 44 -2 86 -13 123 -30z
m-57 -418 c13 -13 -1 -57 -26 -80 -32 -30 -71 -26 -102 10 -21 25 -23 35 -15
58 9 26 11 27 72 24 34 -2 66 -7 71 -12z m-5153 -1727 c13 -35 2 -80 -24 -98
-31 -22 -53 -19 -87 13 l-31 27 48 51 c53 57 74 58 94 7z m4438 -3110 c98
-275 109 -415 50 -646 -46 -182 -144 -334 -202 -311 -21 7 -54 73 -67 129 -6
28 -15 100 -20 160 -13 152 -27 214 -65 282 l-32 58 42 50 c59 68 162 224 210
317 22 42 41 76 42 74 2 -1 21 -52 42 -113z"/>
<path d="M7973 5775 c-8 -21 22 -52 85 -87 28 -17 52 -34 52 -39 0 -16 -40
-89 -86 -159 -182 -275 -521 -470 -959 -552 -96 -18 -157 -22 -305 -22 -180 0
-186 0 -243 27 l-57 27 18 37 c11 21 25 55 32 77 10 33 10 40 -4 54 -20 20
-27 12 -51 -53 -53 -148 -166 -251 -305 -279 -45 -9 -55 -15 -55 -31 0 -41
130 -17 213 39 l50 33 43 -111 c49 -129 91 -221 149 -326 23 -41 73 -147 111
-235 39 -88 125 -261 193 -385 68 -124 163 -305 212 -404 95 -193 147 -280
241 -396 146 -180 215 -232 379 -284 217 -69 370 -61 553 30 312 154 490 579
416 994 -9 47 -20 130 -25 185 -10 97 -26 216 -56 400 -8 50 -26 126 -39 170
-35 115 -123 562 -135 685 -6 58 -24 173 -40 255 -43 219 -44 206 13 232 34
16 47 28 47 43 0 23 -20 26 -58 6 -79 -39 -212 -20 -305 44 -65 44 -75 47 -84
25z m295 -150 c6 -2 12 -17 12 -32 0 -15 11 -82 25 -148 44 -210 47 -244 24
-282 -11 -18 -24 -33 -28 -33 -4 0 -15 17 -25 37 -9 20 -47 86 -83 147 -36 61
-74 128 -83 149 l-17 38 36 73 36 72 45 -8 c25 -4 51 -10 58 -13z m-194 -193
c4 -10 31 -61 62 -113 69 -117 124 -224 124 -243 0 -14 -205 -226 -219 -226
-4 0 -13 21 -19 48 -18 67 -77 179 -132 253 l-47 63 87 86 c47 47 95 100 105
118 22 36 31 40 39 14z m-218 -314 c71 -97 134 -237 134 -298 0 -21 -238 -190
-269 -190 -4 0 -14 26 -21 58 -20 93 -74 234 -112 293 l-35 55 66 37 c36 20
91 52 121 71 30 20 58 36 63 36 4 0 28 -28 53 -62z m-276 -223 c21 -44 51
-127 65 -185 25 -100 26 -105 8 -118 -35 -27 -287 -132 -315 -132 -21 0 -178
384 -178 435 0 6 39 21 88 34 48 12 125 37 172 55 l85 33 18 -21 c10 -12 35
-57 57 -101z m-1074 1 c35 -14 93 -27 142 -31 l82 -8 0 -37 c0 -93 49 -288 96
-382 13 -26 24 -50 24 -54 0 -8 -183 2 -217 12 -31 9 -90 121 -173 326 -60
151 -65 168 -51 182 20 21 27 20 97 -8z m634 -101 c12 -38 48 -132 81 -209 33
-76 57 -141 55 -144 -20 -19 -330 -70 -359 -59 -45 17 -137 301 -137 423 l0
51 93 7 c50 4 124 13 162 19 80 14 71 22 105 -88z m986 -946 c90 -28 117 -42
172 -92 79 -73 91 -141 43 -242 -48 -102 -131 -194 -219 -242 -97 -54 -229
-105 -357 -140 -88 -23 -119 -26 -260 -27 -219 0 -234 6 -292 105 l-43 75 11
78 c15 103 52 159 129 199 102 52 217 47 311 -14 53 -33 66 -35 91 -12 25 23
23 37 -13 78 -26 29 -30 41 -25 68 11 57 59 122 110 146 91 44 236 53 342 20z
m491 -344 c-5 -133 -21 -228 -57 -320 l-11 -30 -19 52 c-10 29 -38 87 -62 130
-24 43 -44 81 -46 85 -2 4 19 34 47 65 28 31 70 96 94 143 l42 86 8 -35 c5
-20 6 -99 4 -176z m-190 -189 c45 -79 83 -180 83 -221 0 -35 -60 -128 -128
-197 -31 -32 -59 -58 -63 -58 -3 0 -13 28 -23 63 -9 34 -48 121 -86 192 l-68
131 46 27 c26 14 79 51 117 81 39 30 72 54 75 55 3 0 24 -32 47 -73z m-271
-217 c61 -108 100 -203 106 -259 3 -33 0 -37 -49 -63 -63 -34 -189 -67 -254
-67 -37 0 -51 4 -59 19 -5 11 -21 85 -35 164 -14 80 -29 157 -35 172 -6 15 -9
29 -8 30 2 1 35 13 73 25 39 13 97 36 130 51 33 15 63 28 67 28 4 1 33 -44 64
-100z m-367 -56 c6 -21 19 -92 30 -158 12 -66 24 -130 27 -142 5 -18 2 -23
-13 -23 -25 0 -161 38 -199 56 -49 24 -74 80 -81 183 l-6 89 59 7 c32 4 75 11
94 15 70 16 78 13 89 -27z m-366 10 c43 -3 80 -11 82 -17 2 -6 5 -52 7 -103 4
-86 3 -91 -14 -82 -18 10 -164 176 -182 207 -7 12 -5 14 10 8 10 -4 54 -10 97
-13z"/>
<path d="M7595 5444 c-85 -77 -297 -167 -448 -189 -51 -8 -66 -20 -48 -38 23
-23 274 48 395 111 80 42 183 132 172 150 -11 18 -17 15 -71 -34z"/>
<path d="M8466 2669 c-121 -122 -248 -169 -494 -185 -62 -4 -115 -11 -118 -16
-3 -5 0 -16 8 -25 11 -13 29 -15 125 -9 181 10 280 36 397 105 75 43 198 164
190 186 -11 28 -38 14 -108 -56z"/>
<path d="M6657 7036 c-49 -18 -64 -32 -89 -80 -27 -52 -35 -173 -18 -248 36
-152 152 -298 298 -372 78 -40 198 -48 259 -18 95 49 139 128 131 236 -20 248
-388 554 -581 482z m164 -114 c51 -45 40 -125 -21 -157 -62 -32 -120 -11 -140
50 -13 38 -4 61 43 113 29 32 78 29 118 -6z"/>
</g>
</svg>
