<svg xmlns="http://www.w3.org/2000/svg" width="15" height="16" viewBox="0 0 15 16" fill="none">
    <path d="M7.33008 6.967C7.33008 7.08078 7.37528 7.1899 7.45573 7.27035C7.53618 7.3508 7.6453 7.396 7.75908 7.396C7.87286 7.396 7.98197 7.3508 8.06243 7.27035C8.14288 7.1899 8.18808 7.08078 8.18808 6.967V6.429C8.18729 6.31546 8.14184 6.2068 8.06156 6.12652C7.98128 6.04624 7.87261 6.00079 7.75908 6C7.64554 6.00079 7.53688 6.04624 7.4566 6.12652C7.37631 6.2068 7.33086 6.31546 7.33008 6.429V6.967Z" fill="white"/>
    <path d="M12.5905 0.871346C12.4885 0.749346 12.3315 0.593346 12.079 0.543846C11.8665 0.502346 11.657 0.555346 11.5025 0.598846C11.3809 0.636021 11.267 0.694978 11.1665 0.772846C11.0765 0.839846 10.9915 0.919346 10.914 0.999846C10.7536 1.17073 10.6054 1.35268 10.4705 1.54435C10.3095 1.76935 10.205 1.99785 10.1665 2.25835C10.1542 2.34092 10.1488 2.42438 10.1505 2.50785C9.73197 2.54785 9.27147 2.74885 8.88297 3.23485L8.68697 3.47735C8.59597 3.58885 8.51097 3.69335 8.44597 3.77785C8.3881 3.85079 8.33435 3.92691 8.28497 4.00585C8.258 4.04947 8.23443 4.09511 8.21447 4.14235C8.19547 4.18935 8.16447 4.27535 8.16447 4.38235C8.16447 4.47735 8.17997 4.56235 8.20597 4.63835C7.87655 4.54314 7.53537 4.49484 7.19247 4.49485H5.55647C5.616 4.48384 5.67049 4.45416 5.71202 4.41011C5.75355 4.36606 5.77998 4.30992 5.78747 4.24985L6.00247 2.71485C6.01747 2.59485 6.12247 2.49985 6.25247 2.49985C6.38747 2.49985 6.50247 2.61485 6.50247 2.74985C6.50247 3.15985 6.83247 3.48985 7.23747 3.49985C7.65747 3.50985 8.00247 3.15485 8.00247 2.73485V2.49985C8.00247 1.66985 7.33247 0.999846 6.50247 0.999846C6.11747 0.999846 5.76747 1.15985 5.50247 1.41485C5.23747 1.15985 4.88747 0.999846 4.50247 0.999846C3.67247 0.999846 3.00247 1.66985 3.00247 2.49985V2.73485C3.00247 3.15485 3.34747 3.50985 3.76747 3.49985C4.17247 3.48985 4.50247 3.15985 4.50247 2.74985C4.50247 2.61485 4.61747 2.49985 4.75247 2.49985C4.88247 2.49985 4.98747 2.59485 5.00247 2.71485L5.21747 4.24985C5.22496 4.30992 5.25138 4.36606 5.29292 4.41011C5.33445 4.45416 5.38893 4.48384 5.44847 4.49485H3.91747C3.18247 4.49485 2.35547 4.86085 1.72347 5.37985C1.10047 5.89085 0.556469 6.64335 0.545469 7.50785H0.542969L0.566469 8.02285C0.644969 9.73785 1.27547 11.4648 2.32597 12.8323L1.30047 13.6438C0.720469 14.0893 1.03497 15.0188 1.76747 15.0188H3.45847C3.73797 15.0188 4.09247 14.9358 4.33597 14.8703C4.43047 14.8453 4.51747 14.8198 4.58997 14.7978C5.64477 15.3749 6.84392 15.6347 8.04297 15.5458C9.26297 15.4613 10.318 15.2578 11.214 14.9143C11.261 14.9343 11.3113 14.9467 11.365 14.9513C11.9635 15.0013 12.434 15.0013 13.1585 15.0003H13.4615C13.677 15.0003 13.9005 14.9658 14.0885 14.8518C14.302 14.7223 14.4275 14.5138 14.446 14.2803C14.4625 14.0758 14.395 13.8968 14.327 13.7713C14.2564 13.6436 14.1655 13.5281 14.058 13.4293C13.9395 13.3241 13.8173 13.2232 13.6915 13.1268C13.7695 13.0248 13.8438 12.9193 13.9145 12.8103C14.6825 11.6288 15.0005 10.0968 15.0005 8.23485V8.22985C14.9805 6.05335 14.1855 4.35785 12.6005 3.09985C12.7655 2.75435 12.8415 2.36885 12.8595 2.03535C12.8721 1.83103 12.8605 1.62594 12.825 1.42435C12.793 1.25235 12.73 1.03735 12.5905 0.871346ZM13.159 14.0008C12.4715 14.0008 12.053 14.0018 11.544 13.9628L11.341 13.9028C9.96097 13.4958 9.42397 13.1538 9.15897 12.7458C9.02497 12.5398 8.93747 12.2803 8.87797 11.9068C8.81747 11.5268 8.79097 11.0698 8.75797 10.4718L8.74947 10.3318C8.69647 9.38985 8.09047 8.69085 7.44247 8.24335C6.79447 7.79585 6.01747 7.53435 5.43497 7.50135C4.68697 7.45885 2.53297 7.48035 1.54597 7.49335C1.56397 7.04985 1.86097 6.56085 2.35797 6.15335C2.86797 5.73435 3.47797 5.49535 3.91747 5.49535H7.19247C7.88856 5.49586 8.55622 5.77158 9.04983 6.26239C9.54345 6.7532 9.82298 7.41927 9.82747 8.11535C9.77547 8.99035 10.3975 9.59885 11.0495 9.75635C11.3835 9.83635 11.7635 9.81035 12.0925 9.61035C12.431 9.40435 12.654 9.05235 12.73 8.60435C12.997 7.03785 12.6165 5.16435 11.498 3.93685L11.453 3.88735L11.3965 3.85185C11.2787 3.77365 11.1413 3.73032 11 3.72685C10.9151 3.72731 10.8311 3.74466 10.753 3.77788C10.6749 3.8111 10.6042 3.85953 10.545 3.92035C10.276 4.18935 10.081 4.28685 9.90097 4.32235C9.74947 4.35235 9.56897 4.34685 9.30847 4.29885L9.44797 4.12735L9.66447 3.85935C9.90497 3.55835 10.144 3.50035 10.313 3.50035C10.441 3.50035 10.5145 3.50535 10.565 3.50835L10.579 3.50935H10.583C10.603 3.51085 10.658 3.51435 10.713 3.50935C10.8365 3.49931 10.9529 3.44706 11.0424 3.36139C11.132 3.27572 11.1894 3.16183 11.205 3.03885C11.217 2.94821 11.209 2.85604 11.1815 2.76885C11.1485 2.58485 11.145 2.48135 11.1565 2.40385C11.1665 2.33385 11.1935 2.25285 11.284 2.12635C11.402 1.96135 11.524 1.80835 11.634 1.69485C11.6886 1.63818 11.7326 1.59768 11.766 1.57335L11.79 1.55685L11.828 1.54685C11.833 1.56285 11.8376 1.58318 11.842 1.60785C11.86 1.70435 11.869 1.83385 11.861 1.98185C11.8445 2.28635 11.7615 2.59335 11.626 2.79835C11.5575 2.90135 11.46 3.08835 11.513 3.32335C11.554 3.50535 11.674 3.63035 11.7115 3.66935L11.717 3.67485L11.748 3.70735L11.784 3.73385C13.248 4.80885 13.9815 6.25585 14.0005 8.23735C14.0005 10.0003 13.696 11.3123 13.076 12.2658C13.018 12.3558 12.9568 12.4425 12.8925 12.5258C12.4633 12.2115 12.0306 11.902 11.5945 11.5973C11.5406 11.5597 11.4799 11.5331 11.4158 11.5189C11.3516 11.5048 11.2853 11.5034 11.2206 11.5148C11.09 11.538 10.974 11.6121 10.898 11.7208C10.822 11.8296 10.7923 11.9641 10.8155 12.0947C10.8386 12.2253 10.9127 12.3414 11.0215 12.4173C11.934 13.0548 12.7805 13.6783 13.184 14.0003L13.159 14.0008ZM3.45397 14.0193H2.43847L2.98497 13.5868C3.13497 13.7378 3.2913 13.882 3.45397 14.0193ZM10.8275 8.12985C10.8277 7.59575 10.71 7.0682 10.4829 6.58481C10.2557 6.10142 9.92473 5.67411 9.51347 5.33335C9.70847 5.34735 9.90197 5.34085 10.0945 5.30285C10.418 5.23885 10.7035 5.09435 10.9765 4.87585C11.6845 5.83535 11.9505 7.22435 11.7445 8.43585C11.709 8.64485 11.6265 8.72285 11.573 8.75535C11.5095 8.79385 11.41 8.81385 11.284 8.78335C11.021 8.71985 10.804 8.48535 10.826 8.16485L10.8275 8.14735V8.12985ZM7.97397 14.5483C4.59347 14.7823 1.99247 11.8108 1.60747 8.49235C2.60747 8.47935 4.67647 8.45935 5.37847 8.49935C5.75697 8.52085 6.35997 8.71085 6.87397 9.06585C7.38697 9.42035 7.72247 9.87385 7.75147 10.3873L7.76047 10.5483C7.79247 11.1203 7.82047 11.6283 7.89047 12.0638C7.96197 12.5118 8.08197 12.9223 8.32047 13.2898C8.60547 13.7293 9.02697 14.0558 9.61247 14.3348C9.07161 14.4421 8.52425 14.5134 7.97397 14.5483Z" fill="white"/>
    <path d="M9.04795 2.06221C9.20934 2.06221 9.36411 1.99811 9.47823 1.88399C9.59234 1.76987 9.65645 1.6151 9.65645 1.45371C9.65645 1.29233 9.59234 1.13756 9.47823 1.02344C9.36411 0.909324 9.20934 0.845215 9.04795 0.845215C8.88657 0.845215 8.73179 0.909324 8.61768 1.02344C8.50356 1.13756 8.43945 1.29233 8.43945 1.45371C8.43945 1.6151 8.50356 1.76987 8.61768 1.88399C8.73179 1.99811 8.88657 2.06221 9.04795 2.06221ZM2.00195 4.49971C2.13456 4.49971 2.26174 4.44704 2.35551 4.35327C2.44927 4.2595 2.50195 4.13232 2.50195 3.99971C2.50195 3.86711 2.44927 3.73993 2.35551 3.64616C2.26174 3.55239 2.13456 3.49971 2.00195 3.49971C1.86934 3.49971 1.74217 3.55239 1.6484 3.64616C1.55463 3.73993 1.50195 3.86711 1.50195 3.99971C1.50195 4.13232 1.55463 4.2595 1.6484 4.35327C1.74217 4.44704 1.86934 4.49971 2.00195 4.49971Z" fill="white"/>
</svg>

