<svg width="345" height="345" viewBox="0 0 345 345" fill="none" xmlns="http://www.w3.org/2000/svg">
<path d="M0 172.5C0 77.2309 77.2309 0 172.5 0V0C267.769 0 345 77.2309 345 172.5V172.5C345 267.769 267.769 345 172.5 345V345C77.2309 345 0 267.769 0 172.5V172.5Z" fill="#3AFC95"/>
<path d="M116 232.988V110.999C117.992 101.4 125.796 97.6666 129.449 97L168.799 97.9999C182.347 98.7998 183.742 111.332 182.745 117.498L148.875 233.488C148.21 237.821 143.993 246.386 132.437 245.986C120.881 245.587 116.664 237.154 116 232.988Z" fill="black"/>
<path d="M162.013 242.675L188.785 148.775C192.815 141.935 201.167 141.209 204.84 141.701L242.607 153.301C255.51 157.646 254.106 167.677 251.791 172.149L193.639 252.108C192.047 255.261 186.096 260.694 175.028 257.205C163.96 253.717 161.74 246.065 162.013 242.675Z" fill="black"/>
</svg>
